<svg width="42" height="43" viewBox="0 0 42 43" fill="none" xmlns="http://www.w3.org/2000/svg">
<path d="M0 23C0 11.9543 8.95431 3 20 3C31.0457 3 40 11.9543 40 23C40 34.0457 31.0457 43 20 43C8.95431 43 0 34.0457 0 23Z" fill="#1659E6"/>
<g clip-path="url(#clip0_1_1726)">
<path d="M25.137 24.3524C25.1398 24.8041 24.8577 25.2085 24.4329 25.362L20.9474 26.6499L19.6635 30.1381C19.3774 30.9153 18.3573 31.0913 17.8273 30.455C17.7487 30.3606 17.6868 30.2534 17.6444 30.1381L16.3523 26.6499L12.8641 25.366C12.087 25.0799 11.9109 24.0598 12.5473 23.5298C12.6417 23.4512 12.7488 23.3893 12.8641 23.3469L16.3523 22.0549L17.6362 18.5667C17.9223 17.7895 18.9424 17.6135 19.4724 18.2498C19.5511 18.3442 19.6129 18.4514 19.6554 18.5667L20.9474 22.0549L24.4356 23.3388C24.8608 23.4936 25.1419 23.8999 25.137 24.3524ZM21.3528 17.8653H22.434V18.9464C22.434 19.3626 22.8845 19.6227 23.2449 19.4146C23.4122 19.318 23.5152 19.1396 23.5152 18.9464V17.8653H24.5964C25.0126 17.8653 25.2727 17.4148 25.0646 17.0544C24.968 16.8871 24.7895 16.7841 24.5964 16.7841H23.5152V15.7029C23.5152 15.2867 23.0647 15.0266 22.7043 15.2347C22.5371 15.3313 22.434 15.5097 22.434 15.7029V16.7841H21.3528C20.9367 16.7841 20.6766 17.2346 20.8847 17.595C20.9812 17.7622 21.1597 17.8652 21.3528 17.8653ZM27.2994 20.0276H26.7588V19.487C26.7588 19.0709 26.3083 18.8108 25.9479 19.0189C25.7806 19.1154 25.6776 19.2939 25.6776 19.487V20.0276H25.137C24.7209 20.0276 24.4608 20.4781 24.6688 20.8385C24.7654 21.0058 24.9439 21.1088 25.137 21.1088H25.6776V21.6494C25.6776 22.0656 26.1281 22.3257 26.4885 22.1176C26.6558 22.021 26.7588 21.8426 26.7588 21.6494V21.1088H27.2994C27.7155 21.1088 27.9756 20.6583 27.7676 20.2979C27.671 20.1307 27.4925 20.0276 27.2994 20.0276Z" fill="white"/>
</g>
<rect x="26.5" y="0.5" width="15" height="15" rx="7.5" fill="#E43A39"/>
<rect x="26.5" y="0.5" width="15" height="15" rx="7.5" stroke="white"/>
<path d="M34.7884 5.18182V11H34.0838V5.92045H34.0497L32.6293 6.86364V6.14773L34.0838 5.18182H34.7884Z" fill="white"/>
<defs>
<clipPath id="clip0_1_1726">
<rect width="16" height="16" fill="white" transform="translate(12 15)"/>
</clipPath>
</defs>
</svg>
