<svg width="16" height="16" viewBox="0 0 16 16" fill="none" xmlns="http://www.w3.org/2000/svg">
<path d="M8.00033 1.83333C11.3974 1.8335 14.1663 4.60324 14.1663 8.00032C14.1662 11.3973 11.3973 14.1662 8.00033 14.1663C4.60325 14.1663 1.83351 11.3974 1.83334 8.00032C1.83334 4.60313 4.60314 1.83333 8.00033 1.83333ZM11.5404 5.40657C11.1518 5.01798 10.5149 5.01797 10.1263 5.40657L7.05306 8.47981L5.87337 7.30013L5.79818 7.23177C5.43268 6.93396 4.90104 6.93407 4.53548 7.23177L4.45931 7.30013C4.07126 7.68862 4.07126 8.32472 4.45931 8.71321L6.34603 10.5999C6.532 10.7859 6.78572 10.8928 7.05306 10.8929C7.32051 10.8929 7.57406 10.786 7.76009 10.5999L11.5404 6.82063L11.5462 6.8138C11.9234 6.42338 11.932 5.79834 11.5404 5.40657Z" fill="#22C55E" stroke="#22C55E"/>
</svg>
